<?xml version="1.0" encoding="UTF-8" standalone="no"?>
<!-- Created with Inkscape (http://www.inkscape.org/) -->

<svg
   xmlns:dc="http://purl.org/dc/elements/1.1/"
   xmlns:cc="http://creativecommons.org/ns#"
   xmlns:rdf="http://www.w3.org/1999/02/22-rdf-syntax-ns#"
   xmlns:svg="http://www.w3.org/2000/svg"
   xmlns="http://www.w3.org/2000/svg"
   xmlns:sodipodi="http://sodipodi.sourceforge.net/DTD/sodipodi-0.dtd"
   xmlns:inkscape="http://www.inkscape.org/namespaces/inkscape"
   width="358.80615"
   height="56.260082"
   id="svg7320"
   version="1.1"
   inkscape:version="0.48.5 r10040"
   sodipodi:docname="Nouveau document 14">
  <defs
     id="defs7322">
    <clipPath
       id="clipPath7066"
       clipPathUnits="userSpaceOnUse">
      <path
         inkscape:connector-curvature="0"
         id="path7068"
         d="m 11.338,511.219 167.272,0 0,58.545 -167.272,0 0,-58.545 z" />
    </clipPath>
  </defs>
  <sodipodi:namedview
     id="base"
     pagecolor="#ffffff"
     bordercolor="#666666"
     borderopacity="1.0"
     inkscape:pageopacity="0.0"
     inkscape:pageshadow="2"
     inkscape:zoom="1"
     inkscape:cx="389.25096"
     inkscape:cy="32.528135"
     inkscape:document-units="px"
     inkscape:current-layer="layer1"
     showgrid="false"
     fit-margin-top="0"
     fit-margin-left="0"
     fit-margin-right="0"
     fit-margin-bottom="0"
     inkscape:window-width="1920"
     inkscape:window-height="1027"
     inkscape:window-x="-8"
     inkscape:window-y="-8"
     inkscape:window-maximized="1" />
  <metadata
     id="metadata7325">
    <rdf:RDF>
      <cc:Work
         rdf:about="">
        <dc:format>image/svg+xml</dc:format>
        <dc:type
           rdf:resource="http://purl.org/dc/dcmitype/StillImage" />
        <dc:title></dc:title>
      </cc:Work>
    </rdf:RDF>
  </metadata>
  <g
     inkscape:label="Calque 1"
     inkscape:groupmode="layer"
     id="layer1"
     transform="translate(-188.6975,-399.72053)">
    <g
       id="g7464"
       transform="matrix(0.99587216,0,0,0.99587216,1.5194634,1.7661023)">
      <g
         id="g7441">
        <g
           id="g7062"
           transform="matrix(2.6156531,0,0,-2.6156531,116.02681,1842.3772)"
           style="fill:#ef2e31;fill-opacity:1">
          <g
             clip-path="url(#clipPath7066)"
             id="g7064"
             style="fill:#ef2e31;fill-opacity:1">
            <g
               transform="translate(29.835,535.7234)"
               id="g7070"
               style="fill:#ef2e31;fill-opacity:1">
              <path
                 id="path7072"
                 style="fill:#ef2e31;fill-opacity:1;fill-rule:nonzero;stroke:none"
                 d="m 0,0 c 0,0 2.257,-2.198 5.187,-2.198 1.582,0 3.017,0.821 3.017,2.52 0,3.722 -9.816,3.078 -9.816,9.465 0,3.458 2.989,6.037 6.974,6.037 4.103,0 6.213,-2.228 6.213,-2.228 L 9.933,10.52 c 0,0 -1.992,1.817 -4.601,1.817 -1.758,0 -3.134,-1.026 -3.134,-2.491 0,-3.692 9.786,-2.784 9.786,-9.435 0,-3.312 -2.519,-6.096 -6.856,-6.096 -4.63,0 -7.18,2.842 -7.18,2.842 L 0,0 z"
                 inkscape:connector-curvature="0" />
            </g>
            <g
               transform="translate(50.568,544.179)"
               id="g7074"
               style="fill:#ef2e31;fill-opacity:1">
              <path
                 id="path7076"
                 style="fill:#ef2e31;fill-opacity:1;fill-rule:nonzero;stroke:none"
                 d="m 0,0 c 3.513,0 5.178,-2.008 5.178,-2.008 l -1.48,-2.297 c 0,0 -1.4,1.452 -3.513,1.452 -2.484,0 -4.094,-1.875 -4.094,-4.173 0,-2.273 1.637,-4.227 4.199,-4.227 2.272,0 3.963,1.717 3.963,1.717 l 1.294,-2.377 c 0,0 -1.929,-2.193 -5.547,-2.193 -4.464,0 -7.317,3.143 -7.317,7.053 C -7.317,-3.223 -4.464,0 0,0"
                 inkscape:connector-curvature="0" />
            </g>
            <path
               id="path7078"
               style="fill:#ef2e31;fill-opacity:1;fill-rule:nonzero;stroke:none"
               d="m 58.099,543.862 3.355,0 0,-13.471 -3.355,0 0,13.471 z m 0,5.283 3.328,0 0,-2.985 -3.328,0 0,2.985 z"
               inkscape:connector-curvature="0" />
            <g
               transform="translate(73.1037,538.7902)"
               id="g7080"
               style="fill:#ef2e31;fill-opacity:1">
              <path
                 id="path7082"
                 style="fill:#ef2e31;fill-opacity:1;fill-rule:nonzero;stroke:none"
                 d="M 0,0 C -0.053,1.823 -1.188,2.8 -2.668,2.8 -4.384,2.8 -5.573,1.743 -5.89,0 L 0,0 z m -2.588,5.389 c 3.883,0 5.969,-2.827 5.969,-6.393 0,-0.396 -0.078,-1.295 -0.078,-1.295 l -9.3,0 c 0.212,-2.35 2.035,-3.565 4.043,-3.565 2.166,0 3.883,1.479 3.883,1.479 l 1.294,-2.403 c 0,0 -2.061,-1.929 -5.415,-1.929 -4.464,0 -7.238,3.222 -7.238,7.053 0,4.147 2.827,7.053 6.842,7.053"
                 inkscape:connector-curvature="0" />
            </g>
            <g
               transform="translate(78.7327,543.8614)"
               id="g7084"
               style="fill:#ef2e31;fill-opacity:1">
              <path
                 id="path7086"
                 style="fill:#ef2e31;fill-opacity:1;fill-rule:nonzero;stroke:none"
                 d="m 0,0 3.223,0 0,-1.558 c 0,-0.503 -0.053,-0.925 -0.053,-0.925 l 0.053,0 c 0.581,1.136 2.06,2.801 4.781,2.801 2.985,0 4.675,-1.559 4.675,-5.125 l 0,-8.664 -3.328,0 0,7.977 c 0,1.637 -0.423,2.747 -2.139,2.747 -1.797,0 -3.117,-1.135 -3.619,-2.747 C 3.408,-6.048 3.355,-6.657 3.355,-7.29 l 0,-6.181 -3.355,0 L 0,0 z"
                 inkscape:connector-curvature="0" />
            </g>
            <g
               transform="translate(100.7395,544.179)"
               id="g7088"
               style="fill:#ef2e31;fill-opacity:1">
              <path
                 id="path7090"
                 style="fill:#ef2e31;fill-opacity:1;fill-rule:nonzero;stroke:none"
                 d="M 0,0 C 3.513,0 5.178,-2.008 5.178,-2.008 L 3.699,-4.305 c 0,0 -1.401,1.452 -3.514,1.452 -2.483,0 -4.094,-1.875 -4.094,-4.173 0,-2.273 1.637,-4.227 4.199,-4.227 2.273,0 3.963,1.717 3.963,1.717 l 1.295,-2.377 c 0,0 -1.929,-2.193 -5.548,-2.193 -4.464,0 -7.317,3.143 -7.317,7.053 C -7.317,-3.223 -4.464,0 0,0"
                 inkscape:connector-curvature="0" />
            </g>
            <g
               transform="translate(116.7505,538.7902)"
               id="g7092"
               style="fill:#ef2e31;fill-opacity:1">
              <path
                 id="path7094"
                 style="fill:#ef2e31;fill-opacity:1;fill-rule:nonzero;stroke:none"
                 d="M 0,0 C -0.053,1.823 -1.189,2.8 -2.668,2.8 -4.386,2.8 -5.573,1.743 -5.89,0 L 0,0 z m -2.589,5.389 c 3.883,0 5.97,-2.827 5.97,-6.393 0,-0.396 -0.079,-1.295 -0.079,-1.295 l -9.299,0 c 0.212,-2.35 2.034,-3.565 4.042,-3.565 2.166,0 3.884,1.479 3.884,1.479 l 1.293,-2.403 c 0,0 -2.06,-1.929 -5.415,-1.929 -4.463,0 -7.237,3.222 -7.237,7.053 0,4.147 2.827,7.053 6.841,7.053"
                 inkscape:connector-curvature="0" />
            </g>
            <g
               transform="translate(123.3038,534.4055)"
               id="g7096"
               style="fill:#ef2e31;fill-opacity:1">
              <path
                 id="path7098"
                 style="fill:#ef2e31;fill-opacity:1;fill-rule:nonzero;stroke:none"
                 d="m 0,0 c 0,0 1.479,-1.48 3.672,-1.48 0.951,0 1.77,0.423 1.77,1.216 0,2.007 -6.551,1.744 -6.551,6.075 0,2.509 2.245,3.963 5.151,3.963 3.038,0 4.517,-1.533 4.517,-1.533 L 7.317,5.758 c 0,0 -1.241,1.163 -3.301,1.163 -0.873,0 -1.718,-0.37 -1.718,-1.215 0,-1.902 6.552,-1.664 6.552,-5.996 0,-2.246 -1.955,-4.043 -5.151,-4.043 -3.356,0 -5.231,1.982 -5.231,1.982 L 0,0 z"
                 inkscape:connector-curvature="0" />
            </g>
            <g
               transform="translate(142.4353,540.8516)"
               id="g7100"
               style="fill:#ef2e31;fill-opacity:1">
              <path
                 id="path7102"
                 style="fill:#ef2e31;fill-opacity:1;fill-rule:nonzero;stroke:none"
                 d="m 0,0 c 2.199,0 3.488,1.406 3.488,3.575 0,2.139 -1.289,3.516 -3.43,3.516 l -3.603,0 L -3.545,0 0,0 z m -7.325,10.344 8.028,0 c 3.899,0 6.622,-2.725 6.622,-6.769 0,-4.045 -2.723,-6.858 -6.622,-6.858 l -4.248,0 0,-7.178 -3.78,0 0,20.805 z"
                 inkscape:connector-curvature="0" />
            </g>
            <g
               transform="translate(157.5635,532.9261)"
               id="g7104"
               style="fill:#ef2e31;fill-opacity:1">
              <path
                 id="path7106"
                 style="fill:#ef2e31;fill-opacity:1;fill-rule:nonzero;stroke:none"
                 d="M 0,0 C 2.167,0 3.988,1.69 3.988,4.199 3.988,6.682 2.167,8.4 0,8.4 -2.193,8.4 -4.015,6.682 -4.015,4.199 -4.015,1.69 -2.193,0 0,0 m -0.027,11.253 c 4.121,0 7.423,-2.932 7.423,-7.054 0,-4.146 -3.302,-7.052 -7.396,-7.052 -4.12,0 -7.422,2.906 -7.422,7.052 0,4.122 3.302,7.054 7.395,7.054"
                 inkscape:connector-curvature="0" />
            </g>
          </g>
        </g>
      </g>
    </g>
  </g>
</svg>
