<?xml version="1.0" encoding="utf-8"?>
<!-- Generator: Adobe Illustrator 19.1.0, SVG Export Plug-In . SVG Version: 6.00 Build 0)  -->
<svg version="1.1" id="Calque_1" xmlns="http://www.w3.org/2000/svg" xmlns:xlink="http://www.w3.org/1999/xlink" x="0px" y="0px"
	 width="300px" height="63.6px" viewBox="0 0 300 63.6" style="enable-background:new 0 0 300 63.6;" xml:space="preserve">
<style type="text/css">
	.st0{fill:#FCFEF3;}
</style>
<g>
	<path class="st0" d="M32.6,16l1.1,0.7c-0.4,0.8-0.6,1.5-0.6,2.3v1.4h-1.8v-1.3c0-0.5,0.1-1,0.4-1.6C31.8,17,32.2,16.5,32.6,16z
		 M35.2,16l1.1,0.7c-0.4,0.8-0.6,1.5-0.6,2.3v1.4h-1.8v-1.3c0-0.5,0.1-1,0.4-1.6C34.4,17,34.8,16.5,35.2,16z"/>
	<path class="st0" d="M43.1,24.7h-1.2v4.4h-2.4V17h3.9c1.2,0,2.2,0.3,2.8,1c0.7,0.6,1,1.5,1,2.7c0,1.6-0.6,2.7-1.8,3.4l2.1,4.9v0.1
		H45L43.1,24.7z M41.9,22.6h1.4c0.5,0,0.9-0.2,1.1-0.5c0.2-0.3,0.4-0.8,0.4-1.3c0-1.2-0.5-1.8-1.4-1.8h-1.4V22.6z"/>
	<path class="st0" d="M56.8,23.9H53v3.2h4.5v2h-6.9V17h6.9v2H53v2.9h3.8V23.9z M55.4,16.3l-2,0l-2.3-2.6h2.6L55.4,16.3z"/>
	<path class="st0" d="M68.9,27.7c-0.5,0.5-1,0.9-1.7,1.1c-0.7,0.3-1.4,0.4-2.2,0.4c-1.4,0-2.5-0.4-3.2-1.3s-1.2-2.1-1.2-3.8V22
		c0-1.7,0.4-2.9,1.1-3.8c0.7-0.9,1.8-1.3,3.2-1.3c1.3,0,2.3,0.3,3,1c0.7,0.6,1.1,1.7,1.2,3h-2.4c-0.1-0.8-0.2-1.3-0.5-1.6
		s-0.7-0.4-1.2-0.4c-0.7,0-1.1,0.2-1.4,0.7c-0.3,0.5-0.5,1.2-0.5,2.3v2.2c0,1.1,0.2,1.9,0.5,2.4c0.3,0.5,0.9,0.8,1.6,0.8
		c0.5,0,0.9-0.1,1.2-0.3l0.2-0.1v-2.2h-1.7v-1.8h4.2V27.7z"/>
	<path class="st0" d="M74.7,27.1H79v2h-6.7V17h2.4V27.1z"/>
	<path class="st0" d="M88.4,23.9h-3.8v3.2h4.5v2h-6.9V17H89v2h-4.5v2.9h3.8V23.9z"/>
	<path class="st0" d="M95.4,17l2.3,8.7l2.3-8.7h3.2v12.1h-2.4v-3.3l0.2-5l-2.4,8.3h-1.7l-2.4-8.3l0.2,5v3.3h-2.4V17H95.4z"/>
	<path class="st0" d="M113,23.9h-3.8v3.2h4.5v2h-6.9V17h6.9v2h-4.5v2.9h3.8V23.9z"/>
	<path class="st0" d="M125.2,29.1h-2.4l-3.6-7.9v7.9h-2.4V17h2.4l3.6,7.9V17h2.4V29.1z"/>
	<path class="st0" d="M136.5,19h-3v10.1h-2.4V19h-2.9v-2h8.4V19z"/>
	<path class="st0" d="M144.6,25.9c0-0.5-0.1-0.9-0.4-1.1c-0.3-0.3-0.7-0.5-1.4-0.8c-1.2-0.5-2.1-1-2.6-1.6s-0.8-1.3-0.8-2.2
		c0-1,0.4-1.8,1.1-2.5c0.7-0.6,1.6-0.9,2.8-0.9c0.7,0,1.4,0.2,2,0.5s1,0.8,1.3,1.3c0.3,0.6,0.5,1.2,0.5,1.9h-2.4
		c0-0.6-0.1-1-0.4-1.3c-0.2-0.3-0.6-0.4-1-0.4c-0.4,0-0.8,0.1-1,0.4s-0.4,0.6-0.4,1c0,0.3,0.1,0.6,0.4,0.9s0.7,0.5,1.4,0.8
		c1.2,0.4,2,0.9,2.6,1.6c0.5,0.6,0.8,1.4,0.8,2.4c0,1.1-0.3,1.9-1,2.5c-0.7,0.6-1.6,0.9-2.7,0.9c-0.8,0-1.5-0.2-2.1-0.5
		s-1.1-0.8-1.5-1.4c-0.4-0.6-0.5-1.3-0.5-2.1h2.4c0,0.7,0.1,1.2,0.4,1.5s0.7,0.5,1.3,0.5C144.1,27.3,144.6,26.8,144.6,25.9z"/>
	<path class="st0" d="M156,29.1V17h3.2c1.4,0,2.5,0.4,3.4,1.3c0.8,0.9,1.3,2.1,1.3,3.7v2c0,1.6-0.4,2.8-1.3,3.7
		c-0.8,0.9-2,1.4-3.5,1.4H156z M158.4,19v8h0.7c0.8,0,1.4-0.2,1.7-0.6s0.5-1.2,0.5-2.2v-2.1c0-1.1-0.2-1.9-0.5-2.4s-0.9-0.7-1.6-0.7
		H158.4z"/>
	<path class="st0" d="M173.5,23.9h-3.8v3.2h4.5v2h-6.9V17h6.9v2h-4.5v2.9h3.8V23.9z"/>
	<path class="st0" d="M191.1,25.1c-0.1,1.4-0.4,2.4-1.2,3.1c-0.7,0.7-1.7,1.1-3,1.1c-1.4,0-2.4-0.4-3.1-1.3
		c-0.7-0.9-1.1-2.2-1.1-3.8v-2c0-1.7,0.4-2.9,1.1-3.8c0.8-0.9,1.8-1.3,3.1-1.3c1.3,0,2.3,0.4,3,1.1c0.7,0.7,1.1,1.8,1.2,3.2h-2.4
		c0-0.9-0.2-1.4-0.4-1.8c-0.2-0.3-0.7-0.5-1.3-0.5c-0.7,0-1.1,0.2-1.4,0.7c-0.3,0.5-0.4,1.2-0.4,2.3v2.3c0,1.2,0.1,2,0.4,2.5
		c0.3,0.4,0.7,0.7,1.4,0.7c0.6,0,1.1-0.2,1.3-0.5c0.2-0.3,0.4-0.9,0.4-1.7H191.1z"/>
	<path class="st0" d="M202.8,24.1c0,1.6-0.4,2.9-1.1,3.8c-0.8,0.9-1.8,1.3-3.2,1.3c-1.4,0-2.4-0.4-3.2-1.3c-0.8-0.9-1.2-2.1-1.2-3.7
		v-2.1c0-1.7,0.4-3,1.2-3.9s1.8-1.4,3.2-1.4c1.3,0,2.4,0.5,3.2,1.4c0.8,0.9,1.2,2.2,1.2,3.9V24.1z M200.4,22.1
		c0-1.1-0.2-1.9-0.5-2.4s-0.8-0.8-1.4-0.8c-0.6,0-1.1,0.3-1.4,0.8c-0.3,0.5-0.5,1.3-0.5,2.3v2.2c0,1.1,0.2,1.8,0.5,2.3
		s0.8,0.8,1.5,0.8c0.6,0,1.1-0.2,1.4-0.7c0.3-0.5,0.5-1.2,0.5-2.3V22.1z"/>
	<path class="st0" d="M209.5,17l2.3,8.7L214,17h3.2v12.1h-2.4v-3.3l0.2-5l-2.4,8.3h-1.7l-2.4-8.3l0.2,5v3.3h-2.4V17H209.5z"/>
	<path class="st0" d="M223.3,24.8v4.2h-2.4V17h4.1c1.2,0,2.1,0.4,2.9,1.1s1.1,1.7,1.1,2.9s-0.4,2.1-1.1,2.8s-1.7,1-2.9,1H223.3z
		 M223.3,22.8h1.7c0.5,0,0.8-0.2,1.1-0.5s0.4-0.7,0.4-1.3c0-0.6-0.1-1.1-0.4-1.4c-0.3-0.4-0.6-0.5-1-0.5h-1.7V22.8z"/>
	<path class="st0" d="M240.1,19h-3v10.1h-2.4V19h-2.9v-2h8.4V19z"/>
	<path class="st0" d="M249.4,23.9h-3.8v3.2h4.5v2h-6.9V17h6.9v2h-4.5v2.9h3.8V23.9z"/>
	<path class="st0" d="M258.3,25.9c0-0.5-0.1-0.9-0.4-1.1s-0.7-0.5-1.4-0.8c-1.2-0.5-2.1-1-2.6-1.6s-0.8-1.3-0.8-2.2
		c0-1,0.4-1.8,1.1-2.5c0.7-0.6,1.6-0.9,2.8-0.9c0.7,0,1.4,0.2,2,0.5c0.6,0.3,1,0.8,1.3,1.3c0.3,0.6,0.5,1.2,0.5,1.9h-2.4
		c0-0.6-0.1-1-0.4-1.3c-0.2-0.3-0.6-0.4-1-0.4c-0.4,0-0.8,0.1-1,0.4c-0.2,0.3-0.4,0.6-0.4,1c0,0.3,0.1,0.6,0.4,0.9s0.7,0.5,1.4,0.8
		c1.2,0.4,2,0.9,2.6,1.6c0.5,0.6,0.8,1.4,0.8,2.4c0,1.1-0.3,1.9-1,2.5c-0.7,0.6-1.6,0.9-2.7,0.9c-0.8,0-1.5-0.2-2.1-0.5
		c-0.6-0.3-1.1-0.8-1.5-1.4s-0.5-1.3-0.5-2.1h2.4c0,0.7,0.1,1.2,0.4,1.5s0.7,0.5,1.3,0.5C257.9,27.3,258.3,26.8,258.3,25.9z"/>
	<path class="st0" d="M264.9,20.7l-1.1-0.7c0.4-0.8,0.6-1.5,0.6-2.3v-1.4h1.8v1.3c0,0.5-0.1,1-0.4,1.6
		C265.6,19.9,265.3,20.3,264.9,20.7z M267.5,20.7l-1.1-0.7c0.4-0.8,0.6-1.5,0.6-2.3v-1.4h1.8v1.3c0,0.5-0.1,1-0.4,1.6
		C268.3,19.9,267.9,20.3,267.5,20.7z"/>
</g>
<g>
	<path class="st0" d="M122.9,48.6c-0.8,0-1.5-0.5-1.6-1.5c-0.3,0.8-1.2,1.5-2.2,1.5s-1.6-0.5-1.6-1.4c0-2,3.7-1.7,3.7-3.2
		c0-0.9-0.5-1.3-1.2-1.3c-0.5,0-1.1,0.2-1.4,0.5c0.5,0,0.8,0.3,0.8,0.7c0,0.5-0.4,0.8-0.8,0.8c-0.4,0-0.9-0.3-0.9-0.9
		c0-0.6,0.8-1.7,2.5-1.7c1.2,0,2.3,0.5,2.3,2.1v2.7c0,0.4,0.2,1,0.7,1c0.6,0,0.7-0.4,0.7-1v-0.9h0.6v0.8
		C124.5,48.3,123.8,48.6,122.9,48.6z M119.1,39.1c0,0,1.7,1.2,2.8,2.1l-0.2,0.2c0,0-2.6-0.9-3.2-1.5L119.1,39.1z M119.5,47.8
		c0.8,0,1.8-0.8,1.8-1.5v-1.2c-1.2,1.2-2.4,1.1-2.4,2.1C118.8,47.5,119,47.8,119.5,47.8z"/>
	<path class="st0" d="M127.3,47.6h1.3v-7.1h-1.4v-0.8h3.6l2.1,5.6l1.9-5.6h3.3v0.8h-1.4v7.1h1.5v0.8h-4.1v-0.8h1.3v-6.9l-2.3,6.3
		c-0.1,0.3-0.3,0.4-0.4,0.4c-0.2,0-0.4-0.2-0.5-0.4l-2.6-6.5v7.1h1.5v0.8h-3.8V47.6z"/>
	<path class="st0" d="M144.2,48.6c-0.8,0-1.5-0.5-1.6-1.5c-0.3,0.8-1.2,1.5-2.2,1.5s-1.6-0.5-1.6-1.4c0-2,3.7-1.7,3.7-3.2
		c0-0.9-0.5-1.3-1.2-1.3c-0.5,0-1.1,0.2-1.4,0.5c0.5,0,0.8,0.3,0.8,0.7c0,0.5-0.4,0.8-0.8,0.8c-0.4,0-0.9-0.3-0.9-0.9
		c0-0.6,0.8-1.7,2.5-1.7c1.2,0,2.3,0.5,2.3,2.1v2.7c0,0.4,0.2,1,0.7,1c0.6,0,0.7-0.4,0.7-1v-0.9h0.6v0.8
		C145.8,48.3,145.1,48.6,144.2,48.6z M140.7,47.8c0.8,0,1.8-0.8,1.8-1.5v-1.2c-1.2,1.2-2.4,1.1-2.4,2.1
		C140,47.5,140.2,47.8,140.7,47.8z"/>
	<path class="st0" d="M146,48.5v-0.7h1.1v-5H146v-0.7l2.2-0.1l0.2,1.4c0.2-0.6,0.7-1.4,1.7-1.4c0.6,0,1.2,0.3,1.2,1
		c0,0.7-0.5,1-0.9,1c-0.4,0-0.8-0.3-0.8-0.8c0-0.3,0.2-0.5,0.2-0.5c-1,0-1.3,1.3-1.3,2.4v2.7h1.3v0.7H146z"/>
	<path class="st0" d="M151.8,47.1c0-0.5,0.4-0.9,0.8-0.9c0.4,0,0.8,0.2,0.8,0.7c0,0.4-0.3,0.7-0.6,0.7c0.3,0.2,0.9,0.4,1.4,0.4
		c0.8,0,1.7-0.2,1.7-1c0-1.6-4-0.9-4-3.1c0-1.4,1.6-1.8,2.5-1.8c1.1,0,2.5,0.5,2.5,1.4c0,0.5-0.4,0.9-0.8,0.9
		c-0.4,0-0.8-0.3-0.8-0.8c0-0.4,0.3-0.5,0.4-0.7c-0.3-0.2-0.8-0.3-1.3-0.3c-0.8,0-1.4,0.3-1.4,1c0,1.3,4,0.7,4,3.1
		c0,1.5-1.4,1.9-2.6,1.9C153.2,48.6,151.8,48.2,151.8,47.1z"/>
	<path class="st0" d="M160.9,42c1.6,0,2.8,1.1,2.9,3.2h-4.5v0c0,1.3,0.6,2.5,1.8,2.5c0.8,0,1.6-0.5,1.9-1.5l0.7,0.2
		c-0.3,1.3-1.3,2.1-2.7,2.1c-2,0-3.1-1.6-3.1-3.2C157.9,43.7,158.9,42,160.9,42z M162.4,44.6c0-1.1-0.7-1.9-1.5-1.9
		c-0.8,0-1.5,0.8-1.6,1.9H162.4z"/>
	<path class="st0" d="M166.9,47.8h1.1v0.7h-3.5v-0.7h1.1v-5h-1.1v-0.7h2.4V47.8z M166.1,39.4c0.5,0,0.9,0.4,0.9,0.9
		c0,0.5-0.4,0.9-0.9,0.9c-0.5,0-0.9-0.4-0.9-0.9C165.3,39.7,165.7,39.4,166.1,39.4z"/>
	<path class="st0" d="M170.8,47.8h1.3v0.7h-3.8v-0.7h1.3v-7.4h-1.3v-0.7h2.6V47.8z"/>
	<path class="st0" d="M175,47.8h1.3v0.7h-3.8v-0.7h1.3v-7.4h-1.3v-0.7h2.6V47.8z"/>
	<path class="st0" d="M179.8,42c1.6,0,2.8,1.1,2.9,3.2h-4.5v0c0,1.3,0.6,2.5,1.8,2.5c0.8,0,1.6-0.5,1.9-1.5l0.7,0.2
		c-0.3,1.3-1.3,2.1-2.7,2.1c-2,0-3.1-1.6-3.1-3.2C176.8,43.7,177.8,42,179.8,42z M181.4,44.6c0-1.1-0.7-1.9-1.5-1.9
		c-0.8,0-1.5,0.8-1.6,1.9H181.4z"/>
</g>
</svg>
